<svg width="512" height="512" viewBox="0 0 512 512" fill="none" xmlns="http://www.w3.org/2000/svg">
<style>
   rect { fill: #FFFFFF; }
   path { fill: #000000; }
    @media (prefers-color-scheme: dark) {
      rect { fill: #000000; }
      path { fill: #FFFFFF; }
    }
</style>
<rect width="512" height="512" />
<path d="M51.4347 197.545H96.5199V327.247C96.5199 338.246 94.2057 346.849 89.5774 353.057C85.0035 359.264 78.5784 363.647 70.3018 366.207C62.0253 368.766 52.3603 370.045 41.3068 370.045C39.6733 370.045 38.1759 370.018 36.8146 369.964C35.3989 369.909 33.8471 369.828 32.1591 369.719V336.395C33.2481 336.504 34.201 336.585 35.0178 336.64C35.7801 336.694 36.5696 336.722 37.3864 336.722C42.777 336.722 46.4524 335.878 48.4126 334.19C50.4273 332.556 51.4347 329.915 51.4347 326.267V197.545ZM73.9773 184.477C67.8788 184.477 62.6515 182.463 58.2955 178.433C53.9394 174.404 51.7614 169.558 51.7614 163.895C51.7614 158.232 53.9394 153.386 58.2955 149.357C62.6515 145.327 67.8788 143.312 73.9773 143.312C80.1302 143.312 85.3575 145.327 89.6591 149.357C94.0151 153.386 96.1932 158.232 96.1932 163.895C96.1932 169.558 94.0151 174.404 89.6591 178.433C85.3575 182.463 80.1302 184.477 73.9773 184.477Z" />
<path d="M200.841 268.114V197.545H245.926V323H203.128V299.151H201.821C199.098 307.155 194.334 313.417 187.528 317.936C180.721 322.401 172.635 324.634 163.27 324.634C154.503 324.634 146.826 322.619 140.237 318.589C133.703 314.56 128.612 309.006 124.964 301.928C121.37 294.849 119.546 286.736 119.491 277.588V197.545H164.577V268.114C164.631 274.321 166.21 279.194 169.314 282.734C172.472 286.273 176.882 288.043 182.545 288.043C186.302 288.043 189.542 287.253 192.265 285.674C195.042 284.04 197.165 281.754 198.635 278.813C200.16 275.818 200.895 272.252 200.841 268.114Z" />
<path d="M383.53 238.384H342.038C341.821 235.824 340.922 233.619 339.343 231.768C337.764 229.916 335.722 228.501 333.217 227.521C330.767 226.486 328.045 225.969 325.05 225.969C321.184 225.969 317.862 226.677 315.085 228.092C312.308 229.508 310.947 231.523 311.001 234.136C310.947 235.988 311.737 237.703 313.37 239.282C315.058 240.861 318.298 242.086 323.089 242.957L348.572 247.531C361.423 249.873 370.979 253.82 377.241 259.374C383.557 264.874 386.742 272.252 386.797 281.509C386.742 290.438 384.074 298.198 378.793 304.786C373.565 311.32 366.405 316.384 357.312 319.978C348.273 323.517 337.955 325.287 326.357 325.287C307.19 325.287 292.189 321.366 281.353 313.526C270.572 305.685 264.555 295.339 263.303 282.489H308.061C308.66 286.464 310.62 289.54 313.942 291.718C317.318 293.842 321.565 294.903 326.683 294.903C330.821 294.903 334.225 294.196 336.893 292.78C339.615 291.364 341.004 289.349 341.058 286.736C341.004 284.34 339.806 282.434 337.464 281.018C335.178 279.603 331.584 278.459 326.683 277.588L304.467 273.668C291.671 271.435 282.088 267.188 275.717 260.926C269.347 254.664 266.188 246.606 266.243 236.75C266.188 228.038 268.475 220.66 273.104 214.616C277.786 208.517 284.457 203.889 293.114 200.731C301.826 197.518 312.145 195.912 324.07 195.912C342.202 195.912 356.495 199.669 366.95 207.183C377.459 214.697 382.985 225.098 383.53 238.384Z" />
<path d="M478.887 197.545V230.216H396.23V197.545H478.887ZM412.239 167.489H457.324V282.652C457.324 284.394 457.624 285.865 458.223 287.062C458.822 288.206 459.747 289.077 461 289.676C462.252 290.221 463.858 290.493 465.819 290.493C467.18 290.493 468.759 290.33 470.556 290.003C472.407 289.676 473.768 289.404 474.64 289.186L481.174 320.876C479.159 321.475 476.273 322.21 472.516 323.082C468.813 323.953 464.403 324.525 459.284 324.797C448.939 325.341 440.254 324.28 433.23 321.612C426.206 318.889 420.924 314.615 417.385 308.788C413.845 302.962 412.13 295.666 412.239 286.899V167.489Z" />
</svg>
