<?xml version="1.0" standalone="no"?>
<!DOCTYPE svg PUBLIC "-//W3C//DTD SVG 20010904//EN"
 "http://www.w3.org/TR/2001/REC-SVG-20010904/DTD/svg10.dtd">
<svg version="1.0" xmlns="http://www.w3.org/2000/svg"
 width="700.000000pt" height="700.000000pt" viewBox="0 0 700.000000 700.000000"
 preserveAspectRatio="xMidYMid meet">

<g transform="translate(0.000000,700.000000) scale(0.100000,-0.100000)"
fill="#000000" stroke="none">
<path d="M914 5026 c-89 -29 -167 -105 -194 -190 -16 -49 -8 -151 15 -195 28
-55 101 -118 163 -141 46 -18 72 -21 132 -18 167 10 279 121 280 279 0 112
-62 204 -169 252 -57 25 -171 32 -227 13z"/>
<path d="M5640 4505 l0 -205 -110 0 -110 0 0 -225 0 -225 110 0 110 0 0 -443
c0 -482 3 -509 58 -610 60 -111 179 -190 332 -223 106 -22 332 -15 457 15 86
21 93 24 88 44 -8 32 -85 407 -85 411 0 2 -17 0 -37 -5 -51 -12 -116 -11 -148
1 -52 20 -55 46 -55 445 l0 365 150 0 150 0 0 225 0 225 -150 0 -150 0 0 205
0 205 -305 0 -305 0 0 -205z"/>
<path d="M4265 4313 c-250 -29 -448 -126 -544 -267 -66 -96 -96 -255 -72 -381
26 -142 123 -262 264 -329 96 -46 147 -59 382 -101 110 -19 224 -42 254 -51
104 -30 142 -105 83 -164 -35 -34 -87 -50 -168 -50 -123 0 -216 51 -244 134
l-12 36 -304 0 c-237 0 -304 -3 -304 -12 1 -41 36 -151 67 -211 91 -173 287
-300 526 -341 423 -73 813 32 988 264 145 192 141 452 -9 598 -57 56 -157 111
-256 141 -37 12 -177 41 -310 66 -133 24 -258 51 -277 59 -95 39 -104 133 -17
177 129 66 327 8 356 -104 l8 -32 282 -3 282 -2 0 33 c0 104 -61 237 -150 328
-108 110 -251 175 -450 205 -85 12 -296 17 -375 7z"/>
<path d="M700 3395 c0 -775 -2 -910 -15 -934 -20 -40 -79 -61 -170 -61 l-75 0
0 -230 0 -230 108 0 c457 0 705 143 757 436 12 64 14 253 15 1002 l0 922 -310
0 -310 0 0 -905z"/>
<path d="M1632 3693 c4 -588 5 -611 26 -686 32 -116 76 -192 162 -278 89 -90
171 -134 293 -156 262 -47 515 63 617 270 18 37 37 67 41 67 5 0 9 -74 9 -165
l0 -165 290 0 290 0 0 860 0 860 -304 0 -305 0 -3 -522 -3 -523 -27 -57 c-48
-102 -159 -155 -276 -130 -78 16 -126 53 -159 121 l-28 56 -3 528 -3 527 -310
0 -310 0 3 -607z"/>
</g>
</svg>
